<svg width="50" height="50" viewBox="0 0 50 50" fill="none" xmlns="http://www.w3.org/2000/svg">
<circle cx="25" cy="25" r="25" fill="#C4C4C4"/>
<circle cx="25" cy="25" r="25" fill="url(#paint0_linear)"/>
<g filter="url(#filter0_d)">
<path d="M23.4771 18.4L20.8474 24.7291C20.4909 25.6206 19.956 27.1137 19.7109 27.8269H19.6217C19.3766 27.1137 18.8417 25.6206 18.4851 24.7291L15.8554 18.4H13.56V34H15.7663V27.916C15.7217 26.1331 15.6549 24.5063 15.588 22.8794L15.6771 22.8349C16.1229 24.0829 16.6577 25.5091 17.1926 26.9354L18.552 30.4789H20.7806L22.14 26.9354C22.6749 25.5091 23.2097 24.0829 23.6554 22.8349L23.7446 22.8794C23.6554 24.5063 23.6109 26.1331 23.5663 27.916V34H25.7726V18.4H23.4771ZM32.4912 34.2897C35.4106 34.2897 37.0375 32.3063 37.0375 29.9886C37.0375 25.1526 30.4855 25.1526 30.4855 22.0994C30.4855 20.9851 31.2209 20.272 32.4912 20.272C33.6946 20.272 34.4746 20.9851 34.5192 22.4783H36.8146C36.7478 19.8263 35.1432 18.1103 32.4689 18.1103C29.8392 18.1103 28.19 19.804 28.19 22.0549C28.19 26.6903 34.7198 26.8686 34.7198 29.9663C34.7198 31.2143 33.9843 32.1057 32.4912 32.1057C31.1095 32.1057 30.2403 31.3257 30.218 29.7211H27.9226C27.9449 32.5737 29.7278 34.2897 32.4912 34.2897Z" fill="white"/>
</g>
<defs>
<filter id="filter0_d" x="9.56" y="18.1103" width="31.4775" height="24.1794" filterUnits="userSpaceOnUse" color-interpolation-filters="sRGB">
<feFlood flood-opacity="0" result="BackgroundImageFix"/>
<feColorMatrix in="SourceAlpha" type="matrix" values="0 0 0 0 0 0 0 0 0 0 0 0 0 0 0 0 0 0 127 0"/>
<feOffset dy="4"/>
<feGaussianBlur stdDeviation="2"/>
<feColorMatrix type="matrix" values="0 0 0 0 0 0 0 0 0 0 0 0 0 0 0 0 0 0 0.25 0"/>
<feBlend mode="normal" in2="BackgroundImageFix" result="effect1_dropShadow"/>
<feBlend mode="normal" in="SourceGraphic" in2="effect1_dropShadow" result="shape"/>
</filter>
<linearGradient id="paint0_linear" x1="50" y1="25" x2="0" y2="50" gradientUnits="userSpaceOnUse">
<stop stop-color="#E28F13"/>
<stop offset="1" stop-color="#9E00FF" stop-opacity="0"/>
</linearGradient>
</defs>
</svg>
